<svg viewBox="0 0 24 24" fill="none" xmlns="http://www.w3.org/2000/svg">
  <path fill-rule="evenodd" clip-rule="evenodd"
    d="M5.65612 2.00179C5.64732 2.00382 5.62049 2.00947 5.59649 2.01435C5.42107 2.04999 5.22802 2.21673 5.16402 2.38788C5.12242 2.49912 5.12427 2.43315 5.12219 3.88702L5.12025 5.2415L4.59207 5.52605C3.85932 5.92081 3.83999 5.93146 3.77295 5.97761C3.69558 6.03087 3.57556 6.14577 3.51273 6.22673C3.37061 6.40988 3.27813 6.63461 3.25334 6.85704C3.24725 6.91167 3.24473 8.96154 3.24473 13.845V20.7556L2.89082 20.7557C2.50822 20.7559 2.47874 20.7584 2.38085 20.7996C2.23732 20.8601 2.11655 20.9788 2.04984 21.125C2.0094 21.2136 2.00103 21.2581 2.00113 21.3838C2.0012 21.4785 2.00409 21.5051 2.01985 21.5559C2.08328 21.76 2.24053 21.9174 2.44493 21.9813L2.50491 22H11.9945H21.4841L21.5441 21.9813C21.7465 21.918 21.9067 21.7589 21.9672 21.561C21.9765 21.5308 21.984 21.4959 21.984 21.4835C21.984 21.471 21.9876 21.4585 21.992 21.4558C21.9965 21.4531 22 21.4156 22 21.3708C22 21.3195 21.9971 21.2926 21.992 21.2958C21.9874 21.2986 21.984 21.2912 21.9839 21.2782C21.9838 21.2437 21.964 21.1771 21.9366 21.1184C21.8703 20.9768 21.7489 20.8589 21.6082 20.7996C21.5103 20.7584 21.4808 20.7559 21.0982 20.7557L20.7443 20.7556V16.8026C20.7443 13.9717 20.7418 12.8262 20.7355 12.7672C20.705 12.4833 20.5741 12.2144 20.367 12.0107C20.3346 11.9788 20.1264 11.8112 19.9043 11.6382L19.5006 11.3238L19.4961 10.0517C19.4913 8.68869 19.4934 8.75706 19.4532 8.64754C19.4175 8.55022 19.3226 8.42995 19.2291 8.36365C19.1124 8.28091 19.019 8.25193 18.8688 8.25193C18.6814 8.25193 18.5619 8.30163 18.4285 8.4351C18.3399 8.52382 18.2978 8.59235 18.2636 8.70378L18.2453 8.76358L18.2429 9.55344L18.2404 10.3433L17.0543 9.42021C16.402 8.9125 15.841 8.47881 15.8077 8.45642C15.5895 8.30976 15.3213 8.23644 15.0526 8.25006C14.8818 8.25873 14.7383 8.29549 14.5809 8.37089C14.1794 8.56331 13.9171 8.93874 13.8739 9.383C13.8694 9.42975 13.8664 11.67 13.8663 15.1077L13.8661 20.7556H13.2422H12.6184L12.6163 11.9386L12.6142 3.1217L12.5963 3.04474C12.5057 2.65374 12.2705 2.35023 11.9243 2.17754C11.5973 2.01442 11.2105 2.00333 10.8803 2.14761C10.8311 2.16913 9.79748 2.72193 8.58338 3.37607L6.37594 4.56542L6.3718 3.53545L6.36767 2.50549L6.34933 2.44547C6.28923 2.24885 6.1235 2.08199 5.92805 2.0213C5.88684 2.00851 5.84569 2.00315 5.77209 2.00101C5.7171 1.9994 5.66492 1.99975 5.65612 2.00179ZM8.74734 4.71034C7.3111 5.48421 6.10541 6.13417 6.06802 6.1547C6.03062 6.17523 5.66352 6.37304 5.25222 6.59428L4.50441 6.99654L4.5024 13.8761L4.5004 20.7556H5.43617H6.37194V19.7572C6.37194 18.9254 6.37392 18.7419 6.38381 18.6573C6.43965 18.1796 6.67182 17.752 7.04777 17.4343C7.26174 17.2535 7.5784 17.099 7.84993 17.043C8.06143 16.9994 8.32997 16.9913 8.5306 17.0225C8.93841 17.0859 9.32448 17.2888 9.60666 17.5881C9.87242 17.87 10.0366 18.2055 10.1011 18.5989C10.1178 18.7006 10.1183 18.726 10.121 19.7292L10.1237 20.7556H10.7472H11.3707V16.3782V12.0009L9.12125 11.9988L6.87181 11.9967L6.81583 11.9777C6.63492 11.9166 6.50165 11.7986 6.42445 11.6313C6.35762 11.4864 6.35422 11.2835 6.41614 11.1356C6.48331 10.9752 6.63064 10.8381 6.79983 10.7787L6.86381 10.7562L9.11725 10.7542L11.3707 10.7521V10.1282V9.50424L9.75709 9.50176C8.26745 9.49946 8.13965 9.49822 8.09357 9.48565C7.88407 9.42851 7.71546 9.26794 7.64626 9.05968C7.62749 9.0032 7.6249 8.98245 7.6243 8.88362C7.62387 8.81284 7.62768 8.75538 7.63464 8.72757C7.67967 8.54775 7.8114 8.38758 7.97953 8.30824C8.11094 8.24622 7.94506 8.25173 9.75309 8.24931L11.3707 8.24714V5.77445C11.3707 4.41447 11.368 3.3021 11.3647 3.30252C11.3614 3.30294 10.1836 3.93646 8.74734 4.71034ZM15.1217 11.0643V12.6243L15.8036 12.6268L16.4854 12.6293L16.5454 12.6476C16.7482 12.7094 16.9208 12.8866 16.9751 13.089C16.9925 13.1539 16.9945 13.3357 16.9785 13.4011C16.9726 13.4253 16.9498 13.4826 16.9278 13.5284C16.8927 13.6014 16.8787 13.6208 16.8145 13.6853C16.6952 13.8052 16.583 13.8589 16.4215 13.8735C16.3775 13.8775 16.067 13.8809 15.7316 13.881L15.1217 13.8813V14.5055V15.1297H16.4129C17.8619 15.1297 17.7641 15.1257 17.893 15.1899C18.046 15.266 18.1631 15.4008 18.215 15.5605C18.2416 15.6422 18.2487 15.8006 18.2298 15.8897C18.1844 16.1036 18.0111 16.288 17.7918 16.3558L17.7331 16.374L16.4274 16.3762L15.1217 16.3785V18.567V20.7556H17.3052H19.4886L19.4883 16.8283L19.488 12.901L17.3049 11.2026L15.1217 9.50424V11.0643ZM8.17021 18.2594C8.03177 18.274 7.91053 18.3344 7.80358 18.4423C7.72403 18.5225 7.67887 18.5972 7.64608 18.7029L7.62373 18.7749L7.62141 19.7613L7.61909 20.7476H8.24338H8.86767L8.86525 19.7533C8.863 18.8273 8.86186 18.7556 8.84859 18.7109C8.76059 18.4142 8.47934 18.227 8.17021 18.2594ZM2 21.3798C2 21.426 2.00132 21.4449 2.00294 21.4218C2.00455 21.3987 2.00455 21.3609 2.00294 21.3378C2.00132 21.3147 2 21.3336 2 21.3798Z"
    fill="currentColor" />
</svg>