<svg viewBox="0 0 24 24" fill="none" xmlns="http://www.w3.org/2000/svg">
  <path fill-rule="evenodd" clip-rule="evenodd"
    d="M17.2648 2.00358C15.0219 2.00729 13.9578 2.01173 13.9039 2.01759C13.3049 2.08278 12.8172 2.49814 12.6628 3.07467C12.6153 3.25195 12.6177 3.1266 12.6177 5.44291C12.6177 7.73292 12.6158 7.62215 12.6582 7.79269C12.7721 8.24995 13.1105 8.62596 13.5561 8.79032C13.6258 8.81605 13.7423 8.84644 13.8339 8.8628C13.8834 8.87165 14.4894 8.87353 17.3065 8.87353C20.4765 8.87353 20.7243 8.87257 20.7925 8.85999C21.022 8.81773 21.2334 8.7273 21.4152 8.59357C21.5044 8.52794 21.6612 8.36789 21.7251 8.27723C21.8755 8.06383 21.9685 7.80814 21.9872 7.55688C21.9903 7.51506 21.9927 8.39389 21.9926 9.50984C21.9924 10.6258 21.9913 11.519 21.99 11.4948C21.9644 11.0132 21.7004 10.5777 21.2832 10.329C21.0926 10.2154 20.8873 10.1513 20.6568 10.1336C20.5868 10.1282 19.4283 10.1264 17.2265 10.1281C13.594 10.1309 13.8835 10.1271 13.6979 10.1739C13.1908 10.3019 12.7886 10.7062 12.6585 11.219C12.6149 11.3911 12.6177 11.0566 12.6177 16.0691C12.6177 20.1877 12.619 20.7004 12.63 20.7735C12.6874 21.1559 12.8864 21.4895 13.1978 21.7253C13.3511 21.8414 13.556 21.9338 13.7667 21.9819L13.8459 22L17.2505 21.9998C20.4704 21.9995 20.66 21.9987 20.7471 21.9853C21.2198 21.9123 21.6032 21.6432 21.8262 21.2276C21.9164 21.0595 21.9847 20.8144 21.9885 20.6454C21.9896 20.5962 21.9901 20.5946 21.9945 20.6273C21.9971 20.6471 21.9996 16.7608 22 11.9911C22.0003 7.22131 21.9982 3.3368 21.9952 3.35881L21.9898 3.39883L21.9885 3.34471C21.9858 3.22863 21.9472 3.05086 21.895 2.91402C21.6952 2.39026 21.176 2.01915 20.617 2.00048C20.5784 1.99919 19.0699 2.00058 17.2648 2.00358ZM3.20007 2.01786C2.89822 2.06898 2.62788 2.20825 2.41296 2.42334C2.21426 2.6222 2.09431 2.84497 2.01854 3.15583C2.00484 3.21208 2.00408 3.42605 2.0017 7.90105C1.99988 11.3046 2.00163 12.6049 2.00809 12.6514C2.03989 12.8806 2.13729 13.1133 2.28278 13.3077C2.34424 13.3898 2.48186 13.5275 2.56396 13.589C2.75866 13.7348 2.98025 13.8276 3.22408 13.8654C3.3248 13.8811 10.0365 13.8811 10.1373 13.8654C10.7704 13.7671 11.2618 13.274 11.3548 12.6434C11.3706 12.5364 11.3706 3.35373 11.3548 3.24675C11.2642 2.63239 10.7932 2.1455 10.1773 2.02956C10.1077 2.01646 10.0112 2.01478 9.04107 2.00969C8.45797 2.00664 6.92411 2.00403 5.63249 2.00388C3.41816 2.00365 3.27929 2.00444 3.20007 2.01786ZM3.35604 3.2694C3.30942 3.29132 3.27031 3.33259 3.25493 3.37613C3.24585 3.40183 3.24408 4.14594 3.24408 7.94507C3.24408 12.0863 3.2452 12.4858 3.25686 12.5113C3.27671 12.5548 3.30892 12.5884 3.35028 12.6087L3.3881 12.6274L6.65254 12.6294C8.72634 12.6307 9.93222 12.6287 9.95878 12.6238C10.0411 12.6085 10.097 12.5516 10.1126 12.4669C10.1237 12.4068 10.1248 3.49317 10.1137 3.42546C10.1003 3.34333 10.0433 3.28282 9.96522 3.26764C9.94 3.26274 8.71958 3.25815 6.66066 3.25522L3.3961 3.25056L3.35604 3.2694ZM16.0743 3.2587L14.0059 3.26276L13.9672 3.28183C13.9247 3.30274 13.8867 3.34832 13.8735 3.39411C13.8678 3.41368 13.8659 4.07201 13.8675 5.45984L13.8699 7.49685L13.8914 7.53343C13.9187 7.5799 13.9627 7.61043 14.0173 7.62078C14.0771 7.63213 20.5452 7.63167 20.595 7.62032C20.6433 7.60933 20.6862 7.57989 20.713 7.53939L20.7351 7.50602L20.7372 5.45242C20.7397 3.14864 20.7454 3.35886 20.6789 3.30033C20.6597 3.28342 20.6299 3.26534 20.6126 3.26017C20.5794 3.25023 20.4248 3.25018 16.0743 3.2587ZM13.9979 11.3883C13.9673 11.3947 13.9181 11.4355 13.8941 11.4744L13.8699 11.5136L13.8679 16.0515C13.8665 18.9983 13.8686 20.5996 13.8737 20.6185C13.8865 20.6663 13.9261 20.7123 13.9748 20.7362L14.0189 20.7577L17.297 20.7522C20.9264 20.746 20.6199 20.7513 20.6792 20.6936C20.6956 20.6777 20.7157 20.6499 20.7239 20.632C20.7383 20.6003 20.7387 20.4626 20.7388 16.0691C20.7389 13.1022 20.7362 11.529 20.731 11.5103C20.7203 11.4715 20.6709 11.4158 20.6315 11.3979C20.6001 11.3836 20.489 11.3831 17.3065 11.384C15.4956 11.3845 14.0067 11.3865 13.9979 11.3883ZM3.33209 15.1338C2.96484 15.1635 2.65479 15.3056 2.40625 15.558C2.22614 15.7409 2.11169 15.9401 2.04046 16.1949C1.99819 16.346 2.00015 16.2314 2 18.5608C1.99991 20.0717 2.00248 20.7417 2.00852 20.7819C2.07817 21.2451 2.38079 21.6535 2.804 21.8554C2.94886 21.9244 3.06094 21.9588 3.22882 21.9856C3.31075 21.9987 3.52511 21.9996 6.72867 21.9998L10.1413 22L10.2208 21.9819C10.3881 21.9437 10.5491 21.8793 10.6845 21.7964C11.0004 21.603 11.2358 21.2822 11.3249 20.9235C11.3675 20.7519 11.3655 20.8708 11.3655 18.5703C11.3655 16.2681 11.3676 16.3893 11.3246 16.2157C11.1998 15.7112 10.7983 15.3062 10.2933 15.1756C10.1199 15.1307 10.3869 15.1339 6.72867 15.1325C4.87816 15.1318 3.3497 15.1323 3.33209 15.1338ZM3.3521 16.398C3.31572 16.4138 3.28291 16.4453 3.26135 16.4853L3.24408 16.5173L3.24196 18.5383C3.24049 19.936 3.24245 20.5719 3.2483 20.6002C3.26188 20.6659 3.31441 20.7231 3.37589 20.739C3.39259 20.7434 4.74489 20.7486 6.68867 20.7518L9.97323 20.7572L10.0161 20.7343C10.0738 20.7035 10.1036 20.6609 10.1137 20.5949C10.1189 20.5616 10.1209 19.8311 10.1195 18.5343L10.1173 16.5253L10.0986 16.4875C10.0783 16.4462 10.0436 16.4129 10.0035 16.396C9.98203 16.387 9.42891 16.3853 6.67892 16.3855C3.74925 16.3858 3.37697 16.3872 3.3521 16.398Z"
    fill="currentColor" />
</svg>