<svg viewBox="0 0 24 24" fill="none" xmlns="http://www.w3.org/2000/svg">
  <path fill-rule="evenodd" clip-rule="evenodd"
    d="M16.4957 5.62526C15.9853 5.44985 15.4339 5.43247 14.9135 5.57539C14.3931 5.71831 13.9279 6.01489 13.5787 6.42637C13.3143 6.73789 12.8474 6.77611 12.5359 6.51173C12.2244 6.24736 12.1862 5.7805 12.4505 5.46898C12.9924 4.83053 13.7142 4.37036 14.5216 4.1486C15.3291 3.92684 16.1847 3.95381 16.9766 4.22597C17.7685 4.49814 18.4599 5.00285 18.9605 5.67415C19.461 6.34546 19.7474 7.15214 19.7823 7.98879C19.8172 8.82543 19.5989 9.65314 19.1559 10.3638C18.7129 11.0744 18.0659 11.6349 17.2994 11.972C17.1315 12.0458 16.9595 12.1082 16.7847 12.1589C18.0442 12.3922 19.2139 13.0015 20.1324 13.92C21.3282 15.1158 22 16.7377 22 18.4288C22 18.625 21.9221 18.8132 21.7833 18.9519C21.6446 19.0907 21.4564 19.1686 21.2602 19.1686H16.0262C15.6176 19.1686 15.2864 18.8374 15.2864 18.4288C15.2864 18.0202 15.6176 17.689 16.0262 17.689H20.4642C20.3076 16.6641 19.8282 15.7083 19.0861 14.9662C18.1678 14.0479 16.9223 13.532 15.6236 13.532L15.6215 13.532C15.1487 13.5307 14.6782 13.5989 14.2252 13.7344C13.8337 13.8516 13.4215 13.6292 13.3043 13.2378C13.1872 12.8463 13.4096 12.4341 13.801 12.3169C14.0177 12.2521 14.2375 12.199 14.4594 12.1579C13.7917 11.9633 13.1812 11.6038 12.6856 11.1098C12.3962 10.8213 12.3954 10.3529 12.6839 10.0635C12.9723 9.77416 13.4408 9.77341 13.7301 10.0619C14.1124 10.4429 14.6006 10.6997 15.1311 10.7988C15.6616 10.898 16.2097 10.8348 16.7037 10.6175C17.1978 10.4003 17.6148 10.039 17.9002 9.58105C18.1857 9.12306 18.3264 8.5896 18.304 8.05038C18.2815 7.51116 18.0969 6.99126 17.7743 6.55861C17.4517 6.12595 17.0061 5.80067 16.4957 5.62526ZM15.6246 12.0524C15.6249 12.0524 15.6253 12.0524 15.6256 12.0524L15.6248 12.3241C15.6244 12.3241 15.624 12.3241 15.6236 12.3241V12.0524C15.6239 12.0524 15.6242 12.0524 15.6246 12.0524ZM15.6236 12.3241V12.7922L15.6248 12.3241M8.37645 5.47963C6.89498 5.47963 5.69401 6.6806 5.69401 8.16207C5.69401 9.64354 6.89498 10.8445 8.37645 10.8445C9.85792 10.8445 11.0589 9.64354 11.0589 8.16207C11.0589 6.6806 9.85792 5.47963 8.37645 5.47963ZM4.21439 8.16207C4.21439 5.86343 6.07781 4.00001 8.37645 4.00001C10.6751 4.00001 12.5385 5.86343 12.5385 8.16207C12.5385 10.0569 11.2723 11.656 9.53981 12.1593C10.7984 12.3929 11.9674 13.0021 12.8853 13.92C14.0811 15.1158 14.7529 16.7377 14.7529 18.4288C14.7529 18.625 14.6749 18.8132 14.5362 18.9519C14.3975 19.0907 14.2093 19.1686 14.0131 19.1686H2.73981C2.5436 19.1686 2.35543 19.0907 2.21668 18.9519C2.07794 18.8132 2 18.625 2 18.4288C2 16.7377 2.6718 15.1158 3.86762 13.92C4.78553 13.0021 5.95447 12.3929 7.21309 12.1593C5.48062 11.656 4.21439 10.0569 4.21439 8.16207ZM8.37645 13.532C7.07773 13.532 5.8322 14.0479 4.91387 14.9662C4.17175 15.7083 3.69243 16.6641 3.5358 17.689H13.2171C13.0605 16.6641 12.5811 15.7083 11.839 14.9662C10.9207 14.0479 9.67517 13.532 8.37645 13.532Z"
    fill="currentColor" />
</svg>