<svg viewBox="0 0 24 24" fill="none" xmlns="http://www.w3.org/2000/svg">
  <path fill-rule="evenodd" clip-rule="evenodd"
    d="M11.8412 2C12.2265 2 12.5388 2.31232 12.5388 2.69759V3.18906H20.4755C21.3175 3.18906 22 3.87158 22 4.71352V16.0831C22 16.9251 21.3175 17.6076 20.4755 17.6076H12.6976V19.0419L14.962 20.7402C15.2703 20.9714 15.3327 21.4086 15.1016 21.7168C14.8704 22.025 14.4331 22.0875 14.1249 21.8563L12 20.2626L9.87256 21.858C9.56433 22.0892 9.12708 22.0267 8.89594 21.7185C8.6648 21.4102 8.72728 20.973 9.03551 20.7418L11.3024 19.0418V17.6076H3.52447C2.68253 17.6076 2 16.9251 2 16.0831V4.71352C2 3.87158 2.68253 3.18906 3.52447 3.18906H11.1437V2.69759C11.1437 2.31232 11.456 2 11.8412 2ZM3.52447 4.58423C3.45306 4.58423 3.39518 4.64212 3.39518 4.71352V16.0831C3.39518 16.1545 3.45306 16.2124 3.52447 16.2124H20.4755C20.5469 16.2124 20.6048 16.1545 20.6048 16.0831V4.71352C20.6048 4.64212 20.5469 4.58423 20.4755 4.58423H3.52447ZM19.3173 7.53994C19.5885 7.8136 19.5865 8.25529 19.3128 8.52647L16.6597 11.1556C16.6593 11.156 16.6589 11.1564 16.6585 11.1568C16.3771 11.4373 15.996 11.5948 15.5986 11.5948C15.2006 11.5948 14.819 11.4369 14.5375 11.1556L12.8085 9.42659C12.7886 9.4067 12.7616 9.39553 12.7334 9.39553C12.7053 9.39553 12.6783 9.4067 12.6584 9.42659L10.4043 11.6765C10.4043 11.6766 10.4044 11.6765 10.4043 11.6765C10.1229 11.9576 9.74106 12.1158 9.34323 12.1158C8.94529 12.1158 8.56363 11.9578 8.28212 11.6765L8.28125 11.6757L7.33699 10.7289C7.33692 10.7289 7.33706 10.729 7.33699 10.7289C7.31711 10.7092 7.29 10.6979 7.26197 10.6979C7.23384 10.6979 7.20686 10.709 7.18695 10.7289L5.67163 12.2451C5.39928 12.5176 4.9576 12.5177 4.6851 12.2453C4.4126 11.973 4.41248 11.5313 4.68483 11.2588L6.2005 9.7423C6.48201 9.46104 6.86403 9.3027 7.26197 9.3027C7.65991 9.3027 8.04157 9.46069 8.32309 9.74195L8.32395 9.74281L9.26821 10.6896C9.2683 10.6896 9.26812 10.6895 9.26821 10.6896C9.28809 10.7093 9.31522 10.7206 9.34323 10.7206C9.37136 10.7206 9.39835 10.7094 9.41825 10.6896L11.6723 8.43961C11.6724 8.43953 11.6723 8.43969 11.6723 8.43961C11.9538 8.15849 12.3356 8.00036 12.7334 8.00036C13.1314 8.00036 13.513 8.15835 13.7946 8.43961L15.5236 10.1686C15.5435 10.1885 15.5705 10.1997 15.5986 10.1997C15.6267 10.1997 15.6537 10.1885 15.6736 10.1686L15.6756 10.1666L18.3307 7.53547C18.6044 7.26428 19.0461 7.26629 19.3173 7.53994Z"
    fill="currentColor" />
</svg>