<svg viewBox="0 0 24 24" fill="none" xmlns="http://www.w3.org/2000/svg">
  <path fill-rule="evenodd" clip-rule="evenodd"
    d="M10.174 3.01176C9.83858 3.05536 9.53562 3.17914 9.26956 3.38127C8.97871 3.60225 8.75853 3.90513 8.62996 4.26112C8.60839 4.32086 8.41124 4.91459 8.19187 5.58053L7.793 6.79132H6.77134H5.74967V6.4433C5.74967 6.15808 5.74739 6.08405 5.73705 6.03297C5.71047 5.90163 5.66265 5.81407 5.56174 5.71197C5.47719 5.62643 5.40423 5.58156 5.29783 5.54968C5.20274 5.52119 5.05897 5.5189 4.96551 5.5444C4.75037 5.60306 4.58242 5.77026 4.51702 5.99086C4.49974 6.04913 4.49893 6.06592 4.49607 6.42084L4.4931 6.79019L4.06776 6.79363C3.61023 6.79733 3.59669 6.79843 3.40956 6.84702C2.93147 6.97118 2.51555 7.28633 2.25971 7.7183C2.12516 7.94548 2.03294 8.22822 2.00692 8.49329C2.00067 8.55691 1.99889 10.2463 2.00064 14.428C2.00297 19.9879 2.00379 20.2774 2.0173 20.3505C2.09795 20.7866 2.27669 21.1299 2.57399 21.4197C2.85746 21.696 3.19197 21.8641 3.59442 21.9324C3.67957 21.9469 3.9488 21.9474 11.9955 21.9474C20.0396 21.9474 20.3114 21.9469 20.3966 21.9324C20.7936 21.8651 21.1314 21.6966 21.4092 21.4275C21.6214 21.2219 21.7755 20.9869 21.8757 20.7161C21.931 20.5667 21.9838 20.3344 21.984 20.2398C21.984 20.2256 21.9876 20.2118 21.992 20.209C21.9973 20.2057 22 18.2481 22 14.3623C22 10.4699 21.9973 8.5223 21.992 8.52563C21.9872 8.52864 21.984 8.5179 21.984 8.49861C21.984 8.48101 21.9768 8.42349 21.9679 8.37079C21.8444 7.63376 21.2978 7.03304 20.5814 6.84702C20.3943 6.79843 20.3808 6.79733 19.9232 6.79363L19.4979 6.79019L19.4949 6.42084C19.4921 6.06592 19.4912 6.04913 19.474 5.99086C19.4086 5.77026 19.2406 5.60306 19.0255 5.5444C18.932 5.5189 18.7882 5.52119 18.6932 5.54968C18.5868 5.58156 18.5138 5.62643 18.4292 5.71197C18.3283 5.81407 18.2805 5.90163 18.2539 6.03297C18.2436 6.08405 18.2413 6.15808 18.2413 6.4433V6.79132H17.2196H16.198L15.7991 5.58053C15.5797 4.91459 15.3826 4.32086 15.361 4.26112C15.2589 3.97839 15.1157 3.75254 14.9057 3.54298C14.6082 3.24613 14.2337 3.06465 13.809 3.0115C13.7244 3.0009 13.4807 2.99939 11.9837 3.00018C10.604 3.0009 10.2396 3.00324 10.174 3.01176ZM10.263 4.28075C10.1443 4.30685 10.0498 4.3604 9.95601 4.45464C9.90371 4.50722 9.87946 4.53936 9.85285 4.59142C9.82793 4.64016 9.71848 4.96147 9.46727 5.72334C9.27435 6.30846 9.1165 6.78813 9.1165 6.78926C9.1165 6.79039 10.412 6.79132 11.9955 6.79132C13.5789 6.79132 14.8745 6.79039 14.8745 6.78926C14.8745 6.78813 14.7166 6.30846 14.5237 5.72334C14.2725 4.96147 14.1631 4.64016 14.1381 4.59142C14.0782 4.47428 13.9562 4.36468 13.8266 4.31177C13.7164 4.26678 13.8087 4.26892 11.9915 4.26946C10.6227 4.26987 10.303 4.27196 10.263 4.28075ZM3.71249 8.07695C3.49453 8.13469 3.31199 8.32564 3.26628 8.54369C3.25639 8.5909 3.2548 9.38936 3.25468 14.3698C3.25455 19.6504 3.25564 20.1461 3.26744 20.1993C3.31432 20.4108 3.48341 20.5929 3.69439 20.6591L3.75437 20.678H11.9955H20.2366L20.2966 20.6591C20.5096 20.5923 20.6806 20.4065 20.7237 20.1952C20.7353 20.1386 20.7364 19.6043 20.7363 14.3656C20.7362 9.31083 20.7347 8.59144 20.7244 8.54204C20.6779 8.32048 20.4869 8.12633 20.2627 8.07289C20.2187 8.06241 19.2099 8.061 11.9915 8.06129C3.94613 8.0616 3.76912 8.06194 3.71249 8.07695ZM2.00296 14.3714C2.00296 17.5865 2.00387 18.903 2.00498 17.2969C2.00609 15.6908 2.00609 13.0602 2.00498 11.4512C2.00387 9.84213 2.00296 11.1562 2.00296 14.3714ZM6.29691 11.2147C6.15346 11.2317 6.04334 11.2875 5.93285 11.3992C5.84789 11.4851 5.80744 11.5494 5.77662 11.6475C5.73754 11.7719 5.73758 11.9176 5.77674 12.0422C5.84106 12.247 6.03057 12.4187 6.2415 12.4632C6.32626 12.4811 17.6647 12.4811 17.7495 12.4632C17.9605 12.4187 18.1499 12.247 18.2143 12.042C18.2528 11.9194 18.2529 11.7703 18.2146 11.6482C18.1828 11.5471 18.1437 11.4855 18.0542 11.3957C17.9882 11.3295 17.961 11.3084 17.9054 11.2804C17.868 11.2615 17.8087 11.238 17.7735 11.2281L17.7095 11.21L12.0315 11.209C8.90857 11.2084 6.32801 11.211 6.29691 11.2147ZM6.29691 16.2681C6.15346 16.2851 6.04334 16.3409 5.93285 16.4526C5.84789 16.5385 5.80744 16.6028 5.77662 16.7009C5.73754 16.8253 5.73758 16.9709 5.77674 17.0956C5.84106 17.3004 6.03057 17.4721 6.2415 17.5166C6.32626 17.5345 17.6647 17.5345 17.7495 17.5166C17.9605 17.472 18.1499 17.3004 18.2143 17.0954C18.2528 16.9728 18.2529 16.8237 18.2146 16.7016C18.1828 16.6004 18.1437 16.5388 18.0542 16.4491C17.9882 16.3828 17.961 16.3617 17.9054 16.3337C17.868 16.3149 17.8087 16.2914 17.7735 16.2814L17.7095 16.2633L12.0315 16.2623C8.90857 16.2618 6.32801 16.2644 6.29691 16.2681Z"
    fill="currentColor" />
</svg>